<svg width="16" height="16" viewBox="0 0 16 16" fill="none" xmlns="http://www.w3.org/2000/svg">
<g id="Frame">
<g id="Vector">
<path fill=currentcolor d="M14.6981 12.6913V7.20667C14.6981 6.52337 14.128 5.96912 13.4251 5.96912H11.9105V12.6913H10.5933V3.23756C10.5933 2.55425 10.0231 2 9.32029 2H3.56807C2.86521 2 2.2951 2.55425 2.2951 3.23756V12.6913H1.67308C1.30123 12.6913 1 12.9841 1 13.3457C1 13.7072 1.30123 14 1.67308 14H15.3269C15.6988 14 16 13.7072 16 13.3457C16 12.9841 15.6988 12.6913 15.3269 12.6913H14.6981ZM7.8048 8.70812H5.11249V7.39942H7.8048V8.70812ZM7.8048 6.00469H5.11249V4.69599H7.8048V6.00469Z" fill="#999999"/>
<path fill=currentcolor d="M11.9096 12.2678C13.1469 11.1386 14.111 9.72977 14.6972 8.14642V7.2075C14.6972 6.5242 14.1271 5.96994 13.4243 5.96994H11.9096V12.2678ZM11.4178 12.6913H10.5933V3.23756C10.5933 2.55425 10.0231 2 9.32029 2H3.56807C2.86521 2 2.2951 2.55425 2.2951 3.23756V12.6913H1.67308C1.30123 12.6913 1 12.9841 1 13.3457C1 13.7072 1.30123 14 1.67308 14H9.36623C10.1023 13.6393 10.7898 13.1992 11.4178 12.6913ZM7.8048 8.70812H5.11249V7.39942H7.8048V8.70812ZM7.8048 6.00469H5.11249V4.69599H7.8048V6.00469Z" fill="#999999"/>
<path fill=currentcolor d="M10.5933 6.60444V3.23756C10.5933 2.55425 10.0231 2 9.32029 2H3.56807C2.86521 2 2.2951 2.55425 2.2951 3.23756V11.352C5.7677 11.1096 8.78846 9.27975 10.5933 6.60444ZM5.11249 4.69599H7.8048V6.00469H5.11249V4.69599ZM5.11249 7.39942H7.8048V8.70812H5.11249V7.39942Z" fill="#999999"/>
<path fill=currentcolor d="M5.11249 5.65973V4.69599H6.30122C7.13598 3.91507 7.84309 3.0051 8.38768 2H3.56807C2.86521 2 2.2951 2.55425 2.2951 3.23756V7.07597C3.3111 6.73763 4.25817 6.25782 5.11249 5.65973Z" fill="#999999"/>
</g>
</g>
</svg>
