<svg width="16" height="16" viewBox="0 0 16 16" fill="none" xmlns="http://www.w3.org/2000/svg">
<g id="Frame">
<path fill=currentcolor id="Vector" d="M1 5.84583C1 6.85759 1.8 7.70961 2.75 7.70961C3.7 7.70961 4.5 6.85759 4.5 5.84583C4.5 4.83406 3.7 3.98205 2.75 3.98205C1.8 3.98205 1 4.83406 1 5.84583ZM4.15 2.86378C4.15 3.87555 4.95 4.72756 5.9 4.72756C6.85 4.72756 7.65 3.87555 7.65 2.86378C7.65 1.85201 6.85 1 5.9 1C4.95 1 4.15 1.85201 4.15 2.86378ZM8.35 2.86378C8.35 3.87555 9.15 4.72756 10.1 4.72756C11.05 4.72756 11.85 3.87555 11.85 2.86378C11.85 1.85201 11.05 1 10.1 1C9.15 1 8.35 1.85201 8.35 2.86378ZM11.5 5.84583C11.5 6.85759 12.3 7.70961 13.25 7.70961C14.2 7.70961 15 6.85759 15 5.84583C15 4.83406 14.2 3.98205 13.25 3.98205C12.3 3.98205 11.5 4.83406 11.5 5.84583ZM11.75 8.65782C11.15 7.91231 10.65 7.2733 10 6.47454C9.65 6.04853 9.25 5.67577 8.8 5.51602C8.75 5.51602 8.65 5.46277 8.55 5.46277C8.35 5.40952 8.2 5.40952 8 5.40952C7.8 5.40952 7.65 5.40952 7.45 5.46277C7.35 5.46277 7.3 5.51602 7.2 5.51602C6.7 5.67578 6.3 6.10178 6 6.47454C5.4 7.22005 4.9 7.85906 4.25 8.65782C3.35 9.61634 2.2 10.7346 2.4 12.2256C2.6 12.9711 3.1 13.7167 4.05 13.9829C4.55 14.0894 6.2 13.6634 7.95 13.6634H8.05C9.8 13.6634 11.4 14.0894 11.95 13.9829C12.85 13.7699 13.4 13.0244 13.6 12.2256C13.8 10.7346 12.65 9.61634 11.75 8.65782Z" fill="#999999"/>
</g>
</svg>
