<svg width="16" height="16" viewBox="0 0 16 16" fill="none" xmlns="http://www.w3.org/2000/svg">
<g id="Frame">
<path fill=currentcolor id="Vector" d="M7.71733 1.453C7.80076 1.39552 7.89969 1.36475 8.001 1.36475C8.10231 1.36475 8.20124 1.39552 8.28467 1.453L14.2837 5.58834C14.3504 5.63429 14.4049 5.69578 14.4426 5.76749C14.4803 5.8392 14.5 5.91899 14.5 6V14C14.5 14.1326 14.4473 14.2598 14.3536 14.3536C14.2598 14.4473 14.1326 14.5 14 14.5H2C1.86739 14.5 1.74021 14.4473 1.64645 14.3536C1.55268 14.2598 1.5 14.1326 1.5 14V6C1.50001 5.91899 1.51971 5.8392 1.55739 5.76749C1.59508 5.69578 1.64962 5.63429 1.71633 5.58834L7.71733 1.453ZM8.5 8H7.5V12H8.5V8Z" fill="white"/>
</g>
</svg>
