<svg width="64" height="64" viewBox="0 0 64 64" fill="none" xmlns="http://www.w3.org/2000/svg">
<g id="Frame">
<rect id="Rectangle 68" x="4" y="4" width="56" height="56" rx="14" fill="url(#paint0_linear_215_26)"/>
<g id="Frame_2">
<path id="Vector" d="M45.6266 30.1594C46.2761 31.7625 47.2297 33.3656 47.2297 34.9688V42.9844C47.2297 44.0341 46.3319 44.5875 44.825 44.5875C43.3181 44.5875 42.4203 43.9379 42.4203 42.9844V41.3812H21.5797V42.9844C21.5797 43.9379 20.6819 44.5875 19.175 44.5875C17.6681 44.5875 16.7703 44.0341 16.7703 42.9844V34.9688C16.7703 33.3656 17.7239 31.7625 18.3734 30.1594C19.0224 28.5562 15.9688 28.7563 15.9688 27.7547C15.9688 26.7524 16.1694 26.1516 17.5719 26.1516H19.9766C19.9766 26.1516 21.1148 22.8812 21.5797 21.3422C22.0446 19.8032 23.9844 18.9375 25.5875 18.9375H38.4125C40.0156 18.9375 41.9554 19.8032 42.4203 21.3422C42.8852 22.8812 44.0234 26.1516 44.0234 26.1516H46.4281C47.8306 26.1516 48.0312 26.7524 48.0312 27.7547C48.0312 28.7563 44.9776 28.5562 45.6266 30.1594ZM27.9922 35.7703C27.9922 35.9829 28.0766 36.1868 28.227 36.3371C28.3773 36.4874 28.5812 36.5719 28.7938 36.5719H35.2063C35.4188 36.5719 35.6227 36.4874 35.773 36.3371C35.9234 36.1868 36.0078 35.9829 36.0078 35.7703V34.9688C36.0078 34.7562 35.9234 34.5523 35.773 34.402C35.6227 34.2516 35.4188 34.1672 35.2063 34.1672H28.7938C28.5812 34.1672 28.3773 34.2516 28.227 34.402C28.0766 34.5523 27.9922 34.7562 27.9922 34.9688V35.7703V35.7703ZM19.9766 35.7703C19.9766 36.0861 20.0388 36.3988 20.1596 36.6905C20.2805 36.9823 20.4576 37.2474 20.6809 37.4707C20.9042 37.694 21.1693 37.8711 21.461 37.992C21.7528 38.1128 22.0655 38.175 22.3813 38.175C22.697 38.175 23.0097 38.1128 23.3015 37.992C23.5932 37.8711 23.8583 37.694 24.0816 37.4707C24.3049 37.2474 24.482 36.9823 24.6029 36.6905C24.7237 36.3988 24.7859 36.0861 24.7859 35.7703C24.7859 35.1325 24.5326 34.5209 24.0816 34.0699C23.6307 33.619 23.019 33.3656 22.3813 33.3656C21.7435 33.3656 21.1318 33.619 20.6809 34.0699C20.2299 34.5209 19.9766 35.1325 19.9766 35.7703V35.7703ZM42.4203 26.1516C42.4203 25.35 40.8172 22.1437 40.8172 22.1437H23.1828C23.1828 22.1437 21.5797 25.35 21.5797 26.1516V26.9531C21.5797 27.3783 21.7486 27.7861 22.0492 28.0867C22.3499 28.3874 22.7576 28.5563 23.1828 28.5563H40.8172C41.2424 28.5563 41.6501 28.3874 41.9508 28.0867C42.2514 27.7861 42.4203 27.3783 42.4203 26.9531V26.1516ZM41.6188 33.3656C40.981 33.3656 40.3693 33.619 39.9184 34.0699C39.4674 34.5209 39.2141 35.1325 39.2141 35.7703C39.2141 36.4081 39.4674 37.0197 39.9184 37.4707C40.3693 37.9217 40.981 38.175 41.6188 38.175C42.2565 38.175 42.8682 37.9217 43.3191 37.4707C43.7701 37.0197 44.0234 36.4081 44.0234 35.7703C44.0234 35.1325 43.7701 34.5209 43.3191 34.0699C42.8682 33.619 42.2565 33.3656 41.6188 33.3656V33.3656Z" fill="url(#paint1_linear_215_26)"/>
</g>
</g>
<defs>
<linearGradient id="paint0_linear_215_26" x1="7" y1="8" x2="56.5" y2="54" gradientUnits="userSpaceOnUse">
<stop stop-color="#9CEEEA"/>
<stop offset="1" stop-color="#64D8D8"/>
</linearGradient>
<linearGradient id="paint1_linear_215_26" x1="44.0938" y1="40.9118" x2="27.5439" y2="17.5381" gradientUnits="userSpaceOnUse">
<stop stop-color="white"/>
<stop offset="0.744792" stop-color="white" stop-opacity="0.7"/>
</linearGradient>
</defs>
</svg>
