<svg width="7" height="8" viewBox="0 0 7 8" fill="none" xmlns="http://www.w3.org/2000/svg">
<path id="Union" d="M0.18198 0.81802C-0.0132896 1.01329 -0.0132815 1.32986 0.18198 1.52513L2.65685 4L0.18198 6.47487C-0.0132896 6.67014 -0.0132815 6.98672 0.18198 7.18198C0.377242 7.37724 0.693817 7.37725 0.889087 7.18198L3.36396 4.70711L5.83883 7.18198C6.0341 7.37724 6.35067 7.37725 6.54594 7.18198C6.74121 6.98671 6.7412 6.67014 6.54594 6.47487L4.07107 4L6.54594 1.52513C6.74121 1.32986 6.7412 1.01328 6.54594 0.81802C6.35068 0.622758 6.0341 0.622749 5.83883 0.81802L3.36396 3.29289L0.889087 0.81802C0.693825 0.622758 0.377251 0.622749 0.18198 0.81802Z" fill="#666666"/>
</svg>
