<svg width="16" height="16" viewBox="0 0 16 16" fill="none" xmlns="http://www.w3.org/2000/svg">
<g id="Frame">
<path fill=currentcolor id="Vector" d="M12.5 2H3.50001C2.67299 2 2 2.64611 2 3.44002V9.68006C2 10.4739 2.67299 11.1201 3.50001 11.1201H3.50646L3.50001 13.5185C3.49951 13.7159 3.62499 13.8935 3.81549 13.9664C3.87432 13.9886 3.93689 14 4.00003 14C4.1355 14 4.2685 13.9472 4.36497 13.8483L7.02446 11.1201H12.5C13.327 11.1201 14 10.4739 14 9.68008V3.44002C14 2.64611 13.327 2 12.5 2V2ZM11.2755 8.49051C11.0385 8.62446 10.7315 8.54806 10.5915 8.31962C10.1891 7.66205 9.03755 7.12728 8.02356 7.12728C7.00604 7.12728 5.85202 7.66634 5.451 8.32873C5.31199 8.5582 5.00602 8.63587 4.76753 8.50246C4.52853 8.36956 4.4475 8.0753 4.58651 7.84629C5.24648 6.75577 6.85002 6.16678 8.02405 6.16678C9.19249 6.16731 10.7915 6.75146 11.4535 7.83338C11.5931 8.06188 11.5135 8.35608 11.2755 8.49051Z" fill="#999999"/>
</g>
</svg>
