<svg width="16" height="16" viewBox="0 0 16 16" fill="none" xmlns="http://www.w3.org/2000/svg">
<g id="Frame">
<path fill=currentcolor id="Vector" d="M12.7626 3.36094L12.447 3.63751C13.5736 4.76407 14.2751 6.31719 14.2751 8.03751C14.2751 9.03282 14.0376 9.97032 13.6236 10.8047L13.983 11.0125C14.1736 11.1219 14.2392 11.3656 14.1283 11.5563C14.0189 11.7469 13.7751 11.8125 13.5845 11.7016L13.2236 11.4938C12.1736 13.0641 10.4314 14.1328 8.4314 14.2594V14.6781C8.4314 14.8984 8.25327 15.0766 8.03296 15.0766C7.81265 15.0766 7.63452 14.8984 7.63452 14.6781V14.2594C5.77983 14.1422 4.14702 13.2156 3.0814 11.8297L2.80796 12.0688C2.62671 12.1938 2.37827 12.1484 2.25327 11.9672C2.12827 11.7859 2.17358 11.5375 2.35483 11.4125L2.63921 11.1625C2.10327 10.2438 1.79077 9.17813 1.79077 8.03594C1.79077 7.04063 2.02827 6.10157 2.44233 5.26876L2.08296 5.06094C1.89233 4.95157 1.82671 4.70782 1.93765 4.51719C2.04702 4.32657 2.29077 4.26094 2.4814 4.37188L2.84233 4.57969C3.89233 3.00938 5.63452 1.94219 7.63452 1.81407V1.39688C7.63452 1.17657 7.81265 0.998444 8.03296 0.998444C8.25327 0.998444 8.4314 1.17657 8.4314 1.39688V1.81563C9.70171 1.89532 10.8673 2.35938 11.8189 3.08751L12.2923 2.67188C12.4798 2.54063 12.7376 2.58751 12.8689 2.77813C12.9986 2.96876 12.9517 3.22969 12.7626 3.36094V3.36094ZM5.37671 4.98282C5.1564 4.98282 4.97827 5.16094 4.97827 5.38126C4.97827 5.60157 5.1564 5.77969 5.37671 5.77969C5.59702 5.77969 5.77515 5.60157 5.77515 5.38126C5.77515 5.16094 5.59702 4.98282 5.37671 4.98282ZM7.63452 8.70157C6.90171 8.70157 6.3064 9.29688 6.3064 10.0297C6.3064 10.7625 6.90171 11.3578 7.63452 11.3578C8.36733 11.3578 8.96265 10.7625 8.96265 10.0297C8.96265 9.29688 8.36733 8.70157 7.63452 8.70157ZM10.6892 5.24844C10.1751 5.24844 9.75952 5.66407 9.75952 6.17813C9.75952 6.69219 10.1751 7.10782 10.6892 7.10782C11.2033 7.10782 11.6189 6.69219 11.6189 6.17813C11.6189 5.66563 11.2017 5.24844 10.6892 5.24844Z" fill="#999999"/>
<path fill=currentcolor id="Vector_2" opacity="0.15" d="M1.80786 8.30313C1.85317 9.34376 2.15317 10.3172 2.64692 11.1641L2.36255 11.4141C2.1813 11.5391 2.13599 11.7875 2.26099 11.9688C2.38599 12.15 2.63442 12.1953 2.81567 12.0703L3.08911 11.8313C4.15474 13.2172 5.78755 14.1438 7.64224 14.2609V14.6797C7.64224 14.9 7.82036 15.0781 8.04067 15.0781C8.26099 15.0781 8.43911 14.9 8.43911 14.6797V14.2609C10.4391 14.1344 12.1813 13.0656 13.2313 11.4953L13.5922 11.7031C13.7829 11.8125 14.0266 11.7484 14.136 11.5578C14.2454 11.3672 14.1813 11.1234 13.9907 11.0141L13.6313 10.8063C14.0094 10.0469 14.236 9.20157 14.275 8.30469H1.80786V8.30313ZM7.64224 11.3578C6.90942 11.3578 6.31411 10.7625 6.31411 10.0297C6.31411 9.29688 6.90942 8.70157 7.64224 8.70157C8.37505 8.70157 8.97036 9.29688 8.97036 10.0297C8.97036 10.7641 8.37505 11.3578 7.64224 11.3578V11.3578Z" fill="#999999"/>
<path fill=currentcolor id="Vector_3" opacity="0.1" d="M10.6892 7.10782C10.2689 7.10782 9.91733 6.82657 9.80327 6.44376H2.00171C1.86577 6.95313 1.79077 7.48594 1.79077 8.03751C1.79077 9.17969 2.10327 10.2453 2.63921 11.1641L2.35483 11.4141C2.17358 11.5391 2.12827 11.7875 2.25327 11.9688C2.37827 12.15 2.62671 12.1953 2.80796 12.0703L3.0814 11.8313C4.14702 13.2172 5.77983 14.1438 7.63452 14.2609V14.6797C7.63452 14.9 7.81265 15.0781 8.03296 15.0781C8.25327 15.0781 8.4314 14.9 8.4314 14.6797V14.2609C10.4314 14.1344 12.1736 13.0656 13.2236 11.4953L13.5845 11.7031C13.7751 11.8125 14.0189 11.7484 14.1283 11.5578C14.2376 11.3672 14.1736 11.1234 13.983 11.0141L13.6236 10.8063C14.0376 9.97188 14.2751 9.03438 14.2751 8.03907C14.2751 7.48751 14.2017 6.95313 14.0673 6.44532H11.5751C11.4611 6.82657 11.1095 7.10782 10.6892 7.10782V7.10782ZM7.63452 11.3578C6.90171 11.3578 6.3064 10.7625 6.3064 10.0297C6.3064 9.29688 6.90171 8.70157 7.63452 8.70157C8.36733 8.70157 8.96265 9.29688 8.96265 10.0297C8.96265 10.7641 8.36733 11.3578 7.63452 11.3578Z" fill="#999999"/>
<path fill=currentcolor id="Vector_4" opacity="0.2" d="M8.97969 9.89688C8.98437 9.94063 8.99375 9.98438 8.99375 10.0297C8.99375 10.7625 8.39844 11.3578 7.66562 11.3578C6.93281 11.3578 6.3375 10.7625 6.3375 10.0297C6.3375 9.98438 6.34687 9.94063 6.35156 9.89688H2.10938C2.25 10.3422 2.43594 10.7672 2.66719 11.1641L2.38281 11.4141C2.20156 11.5391 2.15625 11.7875 2.28125 11.9688C2.40625 12.15 2.65469 12.1953 2.83594 12.0703L3.10937 11.8313C4.175 13.2172 5.80781 14.1438 7.6625 14.2609V14.6797C7.6625 14.9 7.84063 15.0781 8.06094 15.0781C8.28125 15.0781 8.45938 14.9 8.45938 14.6797V14.2609C10.4594 14.1344 12.2016 13.0656 13.2516 11.4953L13.6125 11.7031C13.8031 11.8125 14.0469 11.7484 14.1562 11.5578C14.2656 11.3672 14.2016 11.1234 14.0109 11.0141L13.6516 10.8063C13.7953 10.5156 13.9172 10.2125 14.0156 9.89844H8.97969V9.89688Z" fill="#999999"/>
</g>
</svg>
