<svg width="69" height="68" viewBox="0 0 69 68" fill="none" xmlns="http://www.w3.org/2000/svg">
<g id="Frame">
<rect id="Rectangle 68" x="4.94116" y="4.29413" width="59.2941" height="59.2941" rx="14.8235" fill="url(#paint0_linear_215_16)"/>
<path id="Vector" d="M47.8103 28.9647L49.65 30.864C51.086 32.3463 51.086 34.7485 49.65 36.2309H47.8103V45.3169C47.8103 48.4603 45.2625 51.0015 42.1257 51.0015H38.2676V43.4177C38.2676 42.1603 37.2485 41.1412 35.9911 41.1412H33.1985C31.9411 41.1412 30.922 42.1603 30.922 43.4177V51.0081H27.0639C23.9205 51.0081 21.3794 48.4603 21.3794 45.3235V36.2375H19.5397C18.1036 34.7353 18.1036 32.3728 19.5397 30.8706L21.3794 28.9713L22.0808 28.2434L32.0007 17.9927C32.6757 17.2846 33.6154 16.8809 34.5948 16.8809C35.5742 16.8809 36.5139 17.2846 37.1889 17.9927L47.1088 28.2434L47.8103 28.9647V28.9647Z" fill="url(#paint1_linear_215_16)"/>
</g>
<defs>
<linearGradient id="paint0_linear_215_16" x1="8.11763" y1="8.52942" x2="60.5294" y2="57.2353" gradientUnits="userSpaceOnUse">
<stop stop-color="#FFC4B1"/>
<stop offset="1" stop-color="#F8937D"/>
</linearGradient>
<linearGradient id="paint1_linear_215_16" x1="46.7647" y1="46.1176" x2="23.4706" y2="21.2353" gradientUnits="userSpaceOnUse">
<stop stop-color="white"/>
<stop offset="0.744792" stop-color="white" stop-opacity="0.7"/>
</linearGradient>
</defs>
</svg>
