<svg width="16" height="16" viewBox="0 0 16 16" xmlns="http://www.w3.org/2000/svg">
<g id="Frame">
<path fill=currentcolor fill=currentcolor id="Vector" d="M9.47652 12.9381V10.3223C8.59135 9.99361 7.72296 9.80995 6.67048 9.80995C2.98672 9.80826 0 12.0765 0 14.8757C0 14.966 0.00360945 15.0551 0.00849284 15.143H12.0953L9.98842 13.5655C9.71241 13.3576 9.47652 13.2175 9.47652 12.9381V12.9381ZM6.60445 9.02649C4.69208 9.02649 3.14362 7.46084 3.14214 5.52872C3.14065 3.5966 4.69208 2.03094 6.60297 2.03094C8.51385 2.03094 10.0638 3.5966 10.0638 5.52872C10.0638 7.46084 8.51385 9.02649 6.60148 9.02649H6.60445Z" fill="#999999"/>
<path fill=currentcolor fill=currentcolor id="Vector_2" d="M14.4993 8.13708C14.5609 8.1373 14.6219 8.14971 14.6787 8.17359C14.7355 8.19747 14.787 8.23235 14.8302 8.27622C14.8735 8.32009 14.9076 8.37209 14.9307 8.42921C14.9538 8.48634 14.9653 8.54746 14.9647 8.60907V12.6512C14.9651 12.738 14.9415 12.8232 14.8965 12.8974C14.8516 12.9716 14.787 13.032 14.7099 13.0718L12.8944 14.4262C12.6708 14.5925 12.3081 14.5925 12.085 14.4262L10.2707 13.074C10.1931 13.0344 10.1279 12.9742 10.0824 12.8999C10.0369 12.8255 10.0128 12.7401 10.013 12.6529V8.60886C10.0125 8.54716 10.0243 8.48599 10.0476 8.42884C10.0708 8.37169 10.1051 8.31969 10.1485 8.27583C10.1919 8.23196 10.2435 8.19709 10.3004 8.17321C10.3573 8.14933 10.4184 8.13691 10.4801 8.13666H14.4993V8.13708ZM13.5971 12.1652L13.4485 10.9669L14.2655 10.0849L13.0916 9.85688L12.5135 8.79889L11.9357 9.85688L10.7614 10.0847L11.5799 10.9667L11.4313 12.165L12.5141 11.6518L13.5971 12.1652Z" fill="#999999"/>
</g>
</svg>
