<svg width="88" height="20" viewBox="0 0 88 20" fill="none" xmlns="http://www.w3.org/2000/svg">
<g id="Frame 3">
<path id="Vector" d="M16.4474 15.2941V14.0793L16.4459 13.9956L16.4437 13.9141C16.4437 13.9015 16.4437 13.8881 16.4422 13.8756L16.4378 13.7985C16.3874 13.0859 16.1119 12.7741 15.3119 12.7637H13.157C13.0014 12.7637 12.8473 12.733 12.7036 12.6735C12.5598 12.6139 12.4292 12.5266 12.3192 12.4165C12.2092 12.3065 12.122 12.1758 12.0625 12.032C12.0031 11.8882 11.9725 11.7341 11.9726 11.5785V9.47407C11.9726 8.82074 12.503 8.29037 13.157 8.29037H15.2622C15.917 8.29037 16.4474 8.82074 16.4474 9.47407V11.58C16.4474 12.6141 16.8044 12.8956 17.6304 12.8956H18.8156C19.4696 12.8956 20 13.4259 20 14.08V15.2637C20 15.9178 19.4696 16.4481 18.8156 16.4481H17.5007L17.3785 16.4496L17.3193 16.4511L17.263 16.4533L17.2081 16.457L17.1548 16.4615L17.103 16.4667C17.0866 16.4689 17.0703 16.4713 17.0541 16.4741L17.0067 16.4822C16.6489 16.5533 16.4556 16.7733 16.4474 17.4541V17.6326C16.447 18.2607 16.1972 18.863 15.7528 19.307C15.3084 19.7509 14.7059 20.0002 14.0778 20H6.18148C5.56084 19.9999 4.96502 19.7563 4.52216 19.3214C4.07931 18.8866 3.82478 18.2953 3.81333 17.6748V17.5652C3.81481 16.86 3.6 16.3178 2.76889 16.3178H2.36815C2.05706 16.3177 1.74904 16.2563 1.46167 16.1372C1.1743 16.018 0.913211 15.8435 0.693308 15.6234C0.473405 15.4034 0.298995 15.1422 0.180038 14.8547C0.0610796 14.5673 -9.71748e-05 14.2592 1.1586e-07 13.9481V6.05407C0.000334897 5.4445 0.235643 4.85851 0.656984 4.41799C1.07832 3.97748 1.65326 3.71634 2.26222 3.68889V3.68667C3.28222 3.68667 3.79926 3.27037 3.81333 2.43852V2.36889C3.81333 2.05774 3.87463 1.74964 3.99372 1.46218C4.11282 1.17473 4.28738 0.913551 4.50743 0.69357C4.72748 0.473588 4.98871 0.299113 5.2762 0.180108C5.56369 0.0611041 5.87181 -9.71791e-05 6.18296 1.15824e-07H14.0793C14.7073 0.000196462 15.3095 0.24976 15.7536 0.693832C16.1976 1.1379 16.4472 1.74014 16.4474 2.36815V2.84963C16.4474 3.22815 16.1489 3.53704 15.7741 3.55185L15.7452 3.55259H5.41333C4.27259 3.57481 3.65407 3.98074 3.55704 4.77037L3.55333 4.80963V15.1526C3.65556 15.9941 4.28963 16.4259 5.45555 16.4474H15.4778C16.1237 16.4474 16.3393 16.2356 16.4111 15.8941L16.42 15.8467L16.4237 15.8222L16.4304 15.7726L16.4333 15.7474L16.4378 15.6956L16.4407 15.6422L16.4437 15.5874L16.4459 15.5022L16.4467 15.3852L16.4474 15.2941Z" fill="#FAA251"/>
<g id="&#230;&#177;&#135;&#229;&#174;&#182;&#231;&#137;&#169;&#228;&#184;&#154;">
<path d="M25.232 4.06398C26.176 4.65598 27.376 5.55198 27.952 6.17599L29.2 4.75199C28.592 4.15999 27.344 3.32798 26.416 2.78399L25.232 4.06398ZM24.416 8.41599C25.376 8.97599 26.624 9.83998 27.216 10.432L28.416 8.95999C27.776 8.38399 26.496 7.59999 25.552 7.10398L24.416 8.41599ZM24.768 15.904L26.416 17.168C27.344 15.632 28.288 13.84 29.104 12.192L27.664 10.928C26.736 12.752 25.568 14.704 24.768 15.904ZM39.12 3.32798H29.408V16.72H39.424V14.832H31.408V5.19999H39.12V3.32798Z" fill="#FAA251"/>
<path d="M46.992 2.43198V4.71999H48.96V2.43198H46.992ZM41.216 3.67999V7.29599H43.088V5.42399H52.88V7.29599H54.832V3.67999H41.216ZM43.648 6.44799V8.07999H52.288V6.44799H43.648ZM45.216 9.29599C48.272 11.472 48.272 14.64 47.36 15.344C47.088 15.632 46.784 15.68 46.384 15.68C45.968 15.68 45.44 15.664 44.848 15.6C45.184 16.144 45.36 16.912 45.392 17.44C45.872 17.472 46.352 17.488 46.752 17.472C47.6 17.472 48.112 17.328 48.72 16.8C50.432 15.568 50.464 11.056 46.688 8.43199L45.216 9.29599ZM47.744 6.86399C46.352 8.19199 43.616 9.18398 41.072 9.69598C41.376 10.048 41.872 10.816 42.048 11.184C44.72 10.48 47.632 9.24799 49.328 7.51999L47.744 6.86399ZM46.496 10.048C45.36 10.912 43.04 11.872 41.296 12.288C41.648 12.672 42.048 13.328 42.256 13.744C44.048 13.12 46.4 11.936 47.728 10.912L46.496 10.048ZM47.792 11.568C46.304 13.008 43.248 14.512 40.72 15.136C41.088 15.552 41.504 16.24 41.728 16.72C44.272 15.872 47.392 14.176 49.104 12.544L47.792 11.568ZM50.224 7.13599L48.608 7.45599C49.52 11.488 51.12 14.688 54.144 16.304C54.432 15.776 55.04 15.008 55.472 14.624C52.64 13.36 50.992 10.496 50.224 7.13599ZM53.344 8.17599C52.512 8.97599 51.088 9.99999 50.08 10.576L51.312 11.728C52.352 11.2 53.744 10.304 54.848 9.47199L53.344 8.17599Z" fill="#FAA251"/>
<path d="M64.256 2.41599C63.776 4.78399 62.88 7.07199 61.6 8.47999C62 8.71999 62.752 9.26399 63.056 9.55199C64.352 7.95199 65.408 5.40798 65.984 2.75198L64.256 2.41599ZM69.632 4.91199V5.32798C69.376 12.128 69.072 14.608 68.624 15.168C68.432 15.392 68.288 15.472 68.048 15.472C67.744 15.472 67.2 15.456 66.608 15.392C66.896 15.92 67.088 16.736 67.136 17.28C67.84 17.312 68.512 17.312 68.96 17.216C69.488 17.12 69.84 16.928 70.208 16.384C70.816 15.584 71.104 12.96 71.408 5.77598C71.424 5.53598 71.44 4.91199 71.44 4.91199H69.632ZM64.736 4.91199L63.856 6.68799H70.448V4.91199H64.736ZM65.856 5.48799C65.248 8.17599 63.84 11.184 61.984 12.64C62.48 12.912 63.088 13.36 63.456 13.728C65.2 12.096 66.608 8.92799 67.248 6.17599L65.856 5.48799ZM68.08 5.66399C67.344 9.77599 65.696 13.952 62.896 15.952C63.424 16.208 64.096 16.688 64.464 17.072C67.104 14.864 68.8 10.512 69.568 6.35198L68.08 5.66399ZM56.416 11.136L56.88 12.976C58.576 12.48 60.768 11.824 62.784 11.2L62.528 9.50399C60.32 10.128 57.984 10.784 56.416 11.136ZM59.296 2.41599V17.44H61.056V2.41599H59.296ZM57.184 3.32798C57.04 5.23199 56.768 7.23199 56.256 8.51199C56.64 8.70399 57.328 9.15199 57.616 9.37599C58.192 7.95199 58.576 5.71199 58.784 3.59999L57.184 3.32798ZM57.616 5.50399L57.264 7.34399H62.384V5.50399H57.616Z" fill="#FAA251"/>
<path d="M72.816 14.784V16.688H87.216V14.784H72.816ZM76.96 2.62399V15.504H78.944V2.62399H76.96ZM81.056 2.60799V15.616H83.024V2.60799H81.056ZM85.328 5.82399C84.768 7.77599 83.744 10.192 82.912 11.696L84.496 12.512C85.344 10.96 86.352 8.68799 87.072 6.65598L85.328 5.82399ZM73.024 6.31999C73.744 8.27199 74.592 10.88 74.944 12.416L76.864 11.728C76.448 10.192 75.52 7.67999 74.784 5.79199L73.024 6.31999Z" fill="#FAA251"/>
</g>
</g>
</svg>
