<svg width="30" height="30" viewBox="0 0 30 30" fill="none" xmlns="http://www.w3.org/2000/svg">
<g id="Frame">
<path fill=currentcolor id="Vector" d="M27.0934 14.8245C27.5463 14.8054 27.9731 14.6071 28.2799 14.2733C28.5866 13.9395 28.7482 13.4975 28.7291 13.0445C28.7099 12.5915 28.5116 12.1647 28.1778 11.858C27.844 11.5512 27.402 11.3897 26.949 11.4088H25.0547L23.8039 6.56778C23.7005 6.17435 23.4938 5.81573 23.2051 5.52916C22.9164 5.24259 22.5563 5.0385 22.1621 4.93807C17.3551 3.68731 12.3079 3.68731 7.5008 4.93807C7.10662 5.0385 6.7465 5.24259 6.45781 5.52916C6.16913 5.81573 5.96239 6.17435 5.85907 6.56778L4.60824 11.4268H3.29123C2.88641 11.4224 2.49312 11.5615 2.18103 11.8194C1.86893 12.0772 1.6582 12.4372 1.58616 12.8356C1.51412 13.234 1.58543 13.645 1.78744 13.9959C1.98946 14.3467 2.30915 14.6147 2.68986 14.7524C2.17346 15.054 1.74548 15.4862 1.44888 16.0055C1.15227 16.5249 0.997481 17.1131 1.00003 17.7111V22.2815C1.0023 22.7896 1.17381 23.2824 1.48746 23.6821C1.80111 24.0818 2.23902 24.3655 2.73197 24.4885V25.6492C2.73197 25.8071 2.76308 25.9635 2.82352 26.1094C2.88396 26.2553 2.97256 26.3879 3.08424 26.4996C3.19593 26.6113 3.32851 26.6999 3.47444 26.7603C3.62036 26.8208 3.77676 26.8519 3.9347 26.8519H7.29034C7.44828 26.8519 7.60468 26.8208 7.7506 26.7603C7.89653 26.6999 8.02911 26.6113 8.1408 26.4996C8.25248 26.3879 8.34108 26.2553 8.40152 26.1094C8.46196 25.9635 8.49307 25.8071 8.49307 25.6492V24.5667H21.1699V25.6492C21.1699 25.8071 21.201 25.9635 21.2614 26.1094C21.3219 26.2553 21.4105 26.3879 21.5222 26.4996C21.6338 26.6113 21.7664 26.6999 21.9124 26.7603C22.0583 26.8208 22.2147 26.8519 22.3726 26.8519H25.7343C25.8922 26.8519 26.0486 26.8208 26.1945 26.7603C26.3405 26.6999 26.473 26.6113 26.5847 26.4996C26.6964 26.3879 26.785 26.2553 26.8454 26.1094C26.9059 25.9635 26.937 25.8071 26.937 25.6492V24.4885C27.4288 24.3644 27.8654 24.0801 28.1779 23.6805C28.4904 23.281 28.661 22.7888 28.6629 22.2815V17.7111C28.6656 17.1367 28.5232 16.5709 28.2488 16.0663C27.9744 15.5617 27.5769 15.1345 27.0934 14.8245ZM24.0504 21.7102C23.5995 21.7054 23.1601 21.5674 22.7875 21.3134C22.4149 21.0595 22.1257 20.7009 21.9564 20.283C21.7872 19.865 21.7453 19.4063 21.8362 18.9646C21.9271 18.5229 22.1466 18.118 22.4671 17.8008C22.7876 17.4836 23.1948 17.2684 23.6375 17.1821C24.0801 17.0959 24.5383 17.1425 24.9545 17.3161C25.3706 17.4898 25.7261 17.7827 25.9762 18.1579C26.2262 18.5332 26.3597 18.9741 26.3597 19.425C26.3581 19.7267 26.2971 20.0251 26.1802 20.3032C26.0633 20.5813 25.8928 20.8337 25.6784 21.0459C25.4639 21.2581 25.2098 21.426 24.9305 21.5399C24.6512 21.6539 24.3521 21.7118 24.0504 21.7102ZM5.61251 21.7102C5.16133 21.7066 4.7213 21.5696 4.34788 21.3163C3.97446 21.0631 3.68437 20.7049 3.51417 20.2871C3.34398 19.8692 3.30129 19.4103 3.39149 18.9682C3.48169 18.5261 3.70074 18.1206 4.02104 17.8028C4.34134 17.4851 4.74854 17.2692 5.19133 17.1825C5.63411 17.0958 6.09266 17.1421 6.50917 17.3155C6.92569 17.489 7.28153 17.7819 7.53184 18.1573C7.78215 18.5327 7.91573 18.9738 7.91575 19.425C7.91256 20.0332 7.66831 20.6153 7.23654 21.0437C6.80477 21.4721 6.22074 21.7118 5.61251 21.7102ZM8.09015 7.12705C10.294 6.56996 12.5583 6.28717 14.8315 6.28513C17.1084 6.28367 19.3761 6.57471 21.5788 7.1511L22.8176 13.1648H6.84532L8.09015 7.12705Z" fill="#999999"/>
</g>
</svg>
