<svg width="16" height="16" viewBox="0 0 16 16" fill="none" xmlns="http://www.w3.org/2000/svg">
<g id="Frame">
<path fill=currentcolor id="Vector" d="M9.26983 13.44L9.30695 13.4419C9.50215 13.4634 9.63975 13.6499 9.58951 13.8403L9.56999 13.9088C9.36455 14.5638 8.73927 15.04 8.00007 15.04L7.92391 15.0384C7.19303 15.0058 6.58663 14.5075 6.41031 13.8403L6.40327 13.8048C6.37575 13.6154 6.52839 13.44 6.73031 13.44H9.26983V13.44ZM8.00007 0.959991C8.12738 0.959991 8.24946 1.01056 8.33948 1.10058C8.4295 1.1906 8.48007 1.31269 8.48007 1.43999V1.94367C10.9402 2.19103 12.8001 4.35455 12.8001 6.85567V10.24L12.802 10.288C12.8141 10.4489 12.8866 10.5994 13.0049 10.7092C13.1232 10.8189 13.2787 10.88 13.4401 10.88H13.5543L13.6087 10.8816C14.0055 10.9066 14.3562 11.1994 14.3959 11.5974L14.3994 11.6486C14.4037 11.7562 14.3861 11.8635 14.3479 11.9642C14.3096 12.0648 14.2514 12.1567 14.1768 12.2344C14.1022 12.312 14.0127 12.3737 13.9137 12.416C13.8146 12.4582 13.7081 12.4799 13.6004 12.48H2.44583L2.39143 12.4784C1.99463 12.4534 1.64391 12.1606 1.60423 11.7626L1.60071 11.7114C1.59649 11.6037 1.61404 11.4964 1.65231 11.3957C1.69058 11.295 1.74878 11.2031 1.82342 11.1255C1.89807 11.0479 1.98762 10.9861 2.0867 10.9439C2.18579 10.9017 2.29238 10.88 2.40007 10.88H2.56007L2.60807 10.8784C2.76908 10.8663 2.91956 10.7938 3.02935 10.6754C3.13914 10.557 3.20012 10.4015 3.20007 10.24V6.71999C3.20007 4.23103 5.09447 2.18463 7.52007 1.94367V1.43999C7.52007 1.31269 7.57064 1.1906 7.66066 1.10058C7.75068 1.01056 7.87277 0.959991 8.00007 0.959991Z" fill="#999999"/>
</g>
</svg>
