<svg width="64" height="64" viewBox="0 0 64 64" fill="none" xmlns="http://www.w3.org/2000/svg">
<g id="Frame">
<rect id="Rectangle 68" x="4" y="4" width="56" height="56" rx="14" fill="url(#paint0_linear_215_39)"/>
<g id="Frame_2">
<path id="Vector" d="M48 27.6667C48 29.9511 46.1861 31.8095 43.9565 31.8095C42.9615 31.8109 42.0013 31.4348 41.2609 30.7537C40.8635 31.1183 40.3996 31.3987 39.8959 31.5787C39.3922 31.7587 38.8588 31.8348 38.3263 31.8025C37.7938 31.7703 37.2728 31.6304 36.7933 31.3909C36.3138 31.1514 35.8854 30.817 35.5326 30.407C35.1532 30.8478 34.6865 31.2009 34.1636 31.4427C33.6408 31.6845 33.0737 31.8096 32.5 31.8096C31.9263 31.8096 31.3592 31.6845 30.8364 31.4427C30.3135 31.2009 29.8468 30.8478 29.4674 30.407C29.1149 30.8174 28.6866 31.1522 28.2071 31.392C27.7276 31.6318 27.2064 31.7718 26.6738 31.804C26.1411 31.8363 25.6076 31.76 25.1038 31.5797C24.6001 31.3994 24.1363 31.1186 23.7391 30.7535C22.9988 31.4346 22.0385 31.8108 21.0435 31.8095C18.8139 31.8095 17 29.9511 17 27.6667C17.0003 27.5667 17.0218 27.4679 17.0632 27.3773L20.5635 19.6045C20.7801 19.1261 21.1254 18.7209 21.5589 18.4367C21.9925 18.1525 22.4962 18.001 23.0109 18H41.9891C42.5038 18.001 43.0075 18.1525 43.4411 18.4367C43.8746 18.7209 44.2199 19.1261 44.4365 19.6045L47.9379 27.3773C47.9789 27.468 48.0001 27.5667 48 27.6667V27.6667ZM46.6522 33.881V44.2381C46.6514 44.9704 46.3671 45.6724 45.8618 46.1902C45.3564 46.708 44.6712 46.9992 43.9565 47H41.9348C41.7561 47 41.5846 46.9273 41.4583 46.7978C41.3319 46.6683 41.2609 46.4926 41.2609 46.3095V38.7143C41.2609 37.9818 40.9769 37.2793 40.4713 36.7613C39.9658 36.2434 39.2801 35.9524 38.5652 35.9524C37.8503 35.9524 37.1646 36.2434 36.6591 36.7613C36.1536 37.2793 35.8696 37.9818 35.8696 38.7143V46.3095C35.8696 46.4002 35.8521 46.49 35.8183 46.5738C35.7844 46.6575 35.7348 46.7336 35.6722 46.7978C35.6096 46.8619 35.5353 46.9127 35.4535 46.9474C35.3718 46.9821 35.2842 47 35.1957 47H21.0435C20.3288 46.9992 19.6436 46.708 19.1382 46.1902C18.6329 45.6724 18.3486 44.9704 18.3478 44.2381V33.881C18.3478 33.7527 18.3827 33.6269 18.4485 33.5178C18.5143 33.4087 18.6085 33.3205 18.7205 33.2632C18.8326 33.2058 18.9579 33.1816 19.0826 33.1932C19.2073 33.2048 19.3264 33.2517 19.4265 33.3288C19.7097 33.5464 20.032 33.7047 20.375 33.7946C20.7179 33.8846 21.0748 33.9045 21.4253 33.8531C21.7757 33.8018 22.1128 33.6802 22.4174 33.4953C22.722 33.3105 22.9881 33.066 23.2004 32.7758C23.2632 32.6902 23.3446 32.6207 23.4381 32.5729C23.5316 32.525 23.6346 32.5001 23.7391 32.5001C23.8436 32.5001 23.9467 32.525 24.0402 32.5729C24.1337 32.6207 24.2151 32.6902 24.2778 32.7758C24.5552 33.155 24.9232 33.4547 25.3463 33.646C25.7694 33.8374 26.2334 33.914 26.6938 33.8685C27.1542 33.823 27.5954 33.6569 27.975 33.3862C28.3546 33.1154 28.6598 32.7492 28.8613 32.3226C28.9166 32.2061 29.0027 32.1079 29.1099 32.0392C29.2171 31.9705 29.341 31.934 29.4674 31.934C29.5938 31.934 29.7177 31.9705 29.8249 32.0392C29.9321 32.1079 30.0182 32.2061 30.0735 32.3226C30.2945 32.7894 30.6393 33.183 31.0684 33.4584C31.4975 33.7338 31.9936 33.8799 32.5 33.8799C33.0064 33.8799 33.5025 33.7338 33.9316 33.4584C34.3607 33.183 34.7055 32.7894 34.9265 32.3226C34.9818 32.2061 35.0679 32.1079 35.1751 32.0392C35.2823 31.9705 35.4062 31.934 35.5326 31.934C35.659 31.934 35.7829 31.9705 35.8901 32.0392C35.9973 32.1079 36.0834 32.2061 36.1387 32.3226C36.3402 32.7492 36.6454 33.1154 37.025 33.3862C37.4046 33.6569 37.8458 33.823 38.3062 33.8685C38.7666 33.914 39.2306 33.8374 39.6537 33.646C40.0768 33.4547 40.4448 33.155 40.7222 32.7758C40.785 32.6902 40.8663 32.6207 40.9598 32.5729C41.0533 32.525 41.1564 32.5001 41.2609 32.5001C41.3654 32.5001 41.4684 32.525 41.5619 32.5729C41.6554 32.6207 41.7368 32.6902 41.7996 32.7758C42.0119 33.066 42.278 33.3105 42.5826 33.4953C42.8872 33.6802 43.2243 33.8018 43.5747 33.8531C43.9252 33.9045 44.2821 33.8846 44.625 33.7946C44.968 33.7047 45.2903 33.5464 45.5735 33.3288C45.6736 33.2517 45.7927 33.2048 45.9174 33.1932C46.0421 33.1816 46.1675 33.2058 46.2795 33.2632C46.3915 33.3205 46.4857 33.4087 46.5515 33.5178C46.6173 33.6269 46.6522 33.7527 46.6522 33.881V33.881ZM30.4783 41.4762V35.9524H23.7391V41.4762H30.4783Z" fill="url(#paint1_linear_215_39)"/>
</g>
</g>
<defs>
<linearGradient id="paint0_linear_215_39" x1="7" y1="8" x2="56.5" y2="54" gradientUnits="userSpaceOnUse">
<stop stop-color="#C2E9FF"/>
<stop offset="1" stop-color="#58AFEF"/>
</linearGradient>
<linearGradient id="paint1_linear_215_39" x1="44.193" y1="42.8443" x2="24.7038" y2="19.3057" gradientUnits="userSpaceOnUse">
<stop stop-color="white"/>
<stop offset="0.744792" stop-color="white" stop-opacity="0.7"/>
</linearGradient>
</defs>
</svg>
