<svg width="30" height="30" viewBox="0 0 30 30" fill="none" xmlns="http://www.w3.org/2000/svg">
<g id="Frame">
<path id="Vector" d="M15 1C22.1789 1 28 6.4754 28 13.2304C28 17.8756 25.2469 21.9174 21.1909 23.988C19.1744 24.9932 15.7771 26.6634 11.0032 29V24.87C5.77722 23.2866 2 18.6736 2 13.2318C2 6.474 7.82111 1 15 1ZM8.29778 14.0102C8.02699 14.2727 7.87486 14.6288 7.87486 15C7.87486 15.3712 8.02699 15.7273 8.29778 15.9898C10.0753 17.7126 12.4862 18.6805 15 18.6805C17.5138 18.6805 19.9247 17.7126 21.7022 15.9898C21.9653 15.7258 22.1109 15.3721 22.1076 15.005C22.1043 14.638 21.9524 14.2868 21.6846 14.0273C21.4168 13.7677 21.0545 13.6204 20.6758 13.6173C20.2971 13.6141 19.9322 13.7552 19.6598 14.0102C19.0479 14.6033 18.3214 15.0739 17.5219 15.3949C16.7224 15.7159 15.8654 15.8811 15 15.8811C14.1346 15.8811 13.2776 15.7159 12.4781 15.3949C11.6786 15.0739 10.9521 14.6033 10.3402 14.0102C10.0693 13.7477 9.70201 13.6003 9.319 13.6003C8.93598 13.6003 8.56865 13.7477 8.29778 14.0102V14.0102Z" fill="#999999"/>
</g>
</svg>
