<svg width="16" height="16" viewBox="0 0 16 16" fill="none" xmlns="http://www.w3.org/2000/svg">
<g id="Frame">
<g id="Vector">
<path fill=currentcolor d="M13.5 4.14075C13.5 3.43298 12.8744 2.85523 12.1112 2.85523H11.2424V3.92761C11.2424 4.39946 10.8253 4.78552 10.3156 4.78552H5.68444C5.1747 4.78552 4.75764 4.39946 4.75764 3.92761V2.85523H3.88876C3.12414 2.85523 2.5 3.43432 2.5 4.14075V12.7145C2.5 13.4223 3.12559 14 3.88876 14H12.1083C12.873 14 13.4971 13.4209 13.4971 12.7145L13.5 4.14075ZM11.2424 10.2239C11.2424 10.4598 11.0338 10.6528 10.779 10.6528H5.22104C4.96617 10.6528 4.75764 10.4598 4.75764 10.2239C4.75764 9.98793 4.96617 9.79491 5.22104 9.79491H10.7775C11.0338 9.79491 11.2424 9.98793 11.2424 10.2239ZM11.2424 7.91823C11.2424 8.15416 11.0338 8.34719 10.779 8.34719H5.22104C4.96617 8.34719 4.75764 8.15416 4.75764 7.91823C4.75764 7.68231 4.96617 7.48928 5.22104 7.48928H10.7775C11.0338 7.48928 11.2424 7.68231 11.2424 7.91823Z" fill="#999999"/>
<path fill=currentcolor d="M5.97696 4.14477H10.1447C10.3996 4.14477 10.6081 3.95174 10.6081 3.71582V2.85791H9.91298V2.42895C9.91298 2.19303 9.70445 2 9.44958 2H6.67207C6.41719 2 6.20866 2.19303 6.20866 2.42895V2.85791H5.51356V3.71582C5.51356 3.95174 5.72209 4.14477 5.97696 4.14477Z" fill="#999999"/>
</g>
</g>
</svg>
