<svg width="16" height="16" viewBox="0 0 16 16" fill="none" xmlns="http://www.w3.org/2000/svg">
<g id="Frame">
<path id="Vector" d="M15 6.50001V3.00001L13.8585 4.14151C13.2212 3.17591 12.3543 2.38346 11.3356 1.83512C10.3168 1.28678 9.17796 0.99967 8.02101 0.999512C4.15501 0.999512 1.02051 4.13351 1.02051 8.00001C1.02051 11.8665 4.15501 15.0005 8.02101 15.0005C9.41423 15.0008 10.7758 14.5854 11.9316 13.8074C13.0874 13.0295 13.9848 11.9244 14.509 10.6335C14.5689 10.4861 14.5677 10.321 14.5059 10.1744C14.444 10.0279 14.3264 9.91188 14.179 9.85201C14.106 9.82236 14.0279 9.80738 13.9491 9.80792C13.8704 9.80846 13.7925 9.82451 13.7199 9.85516C13.5734 9.91704 13.4574 10.0346 13.3975 10.182C12.963 11.2516 12.2193 12.1672 11.2615 12.8118C10.3037 13.4564 9.17548 13.8007 8.02101 13.8005C4.81751 13.8005 2.22051 11.2035 2.22051 8.00001C2.22051 4.79651 4.81751 2.19951 8.02101 2.19951C10.0905 2.19951 11.9575 3.29451 12.99 5.00951L11.5 6.50001H15Z" fill="#666666"/>
</g>
</svg>
