<svg width="30" height="30" viewBox="0 0 30 30" fill="none" xmlns="http://www.w3.org/2000/svg">
<g id="Frame">
<path id="Vector" d="M27.8571 10.7678C27.8035 10.7678 27.8035 10.7143 27.8571 10.7678L27.75 10.7143L27.5892 10.5535L20.625 3.42855C20.4107 3.21426 20.1428 3.10712 19.875 3.10712C19.6071 3.10712 19.3392 3.21426 19.125 3.42855L15.9643 6.53569C15.75 6.74997 15.6428 7.01783 15.6428 7.28569C15.6428 7.55355 15.75 7.8214 15.9643 8.03569L17.8928 10.0178L18.8035 10.9285L16.6607 13.0178L19.125 15.5357L19.875 16.2857V16.2321L22.0178 14.1428L26.0892 18.2143C26.3035 18.4286 26.5714 18.5357 26.8392 18.5357C27.1071 18.5357 27.4285 18.4286 27.5892 18.2143C29.6785 16.2321 29.7321 12.9107 27.8571 10.7678Z" fill="#FAA251"/>
<path id="Vector_2" d="M15.1071 13.1786L16.125 9.37503C16.2321 9.00003 16.125 8.62503 15.8571 8.35717L10.8214 3.32145C10.5535 3.0536 10.2321 2.94645 9.85711 3.00003L4.92854 3.96431C4.55354 4.01788 4.23211 4.28574 4.12497 4.66074C4.01782 5.03574 4.12497 5.46431 4.39282 5.73217L7.55354 8.89288L6.26782 10.1786L3.10711 7.01788C2.83925 6.75003 2.41068 6.64288 2.03568 6.75003C1.66068 6.85717 1.39282 7.1786 1.28568 7.5536L0.374965 12.5357C0.321394 12.8572 0.428537 13.2322 0.696394 13.5L5.73211 18.5357C5.99997 18.8036 6.37497 18.9107 6.74997 18.8036L10.5535 17.7857L20.7321 27.75C20.9464 27.9643 21.2143 28.0715 21.4821 28.0715C21.75 28.0715 22.0178 27.9643 22.2321 27.75L25.3928 24.5893C25.6071 24.375 25.7143 24.1072 25.7143 23.8393C25.7143 23.5715 25.6071 23.3036 25.3928 23.0893L15.1071 13.1786Z" fill="#FAA251"/>
<path id="Vector_3" d="M10.5001 19.2857L9.7501 18.5357L5.14296 23.0893C4.71439 23.5178 4.71439 24.1607 5.14296 24.5893L8.2501 27.75C8.46439 27.9643 8.73225 28.0714 9.0001 28.0714C9.26796 28.0714 9.53582 27.9643 9.7501 27.75L14.3037 23.0893L13.5537 22.3393L10.5001 19.2857Z" fill="#FAA251"/>
</g>
</svg>
