<svg width="16" height="16" viewBox="0 0 16 16" fill="none" xmlns="http://www.w3.org/2000/svg">
<g id="Frame">
<g id="Vector">
<path fill=currentcolor d="M14.4852 5.59761C14.4605 5.57284 14.4605 5.59761 14.4852 5.59761L14.4357 5.57284L14.3614 5.49854L11.1416 2.20441C11.0425 2.10533 10.9187 2.0558 10.7948 2.0558C10.671 2.0558 10.5471 2.10533 10.4481 2.20441L8.98677 3.64094C8.8877 3.74001 8.83816 3.86385 8.83816 3.98769C8.83816 4.11153 8.8877 4.23537 8.98677 4.33444L9.87841 5.25086L10.2995 5.67191L9.30875 6.63786L10.4481 7.80195L10.7948 8.1487V8.12393L11.7855 7.15798L13.6679 9.04034C13.767 9.13942 13.8908 9.18895 14.0147 9.18895C14.1385 9.18895 14.2871 9.13942 14.3614 9.04034C15.3273 8.12393 15.3521 6.58832 14.4852 5.59761Z" fill="#999999"/>
<path fill=currentcolor d="M8.59031 6.71209L9.0609 4.95357C9.11044 4.78019 9.0609 4.60682 8.93706 4.48298L6.60888 2.1548C6.48504 2.03096 6.33643 1.98142 6.16306 2.00619L3.88441 2.45201C3.71104 2.47678 3.56243 2.60062 3.51289 2.774C3.46336 2.94737 3.51289 3.14551 3.63673 3.26935L5.09804 4.73066L4.50361 5.32509L3.0423 3.86378C2.91846 3.73994 2.72032 3.69041 2.54695 3.73994C2.37357 3.78948 2.24973 3.93809 2.2002 4.11146L1.77914 6.41488C1.75437 6.56348 1.80391 6.73686 1.92775 6.8607L4.25593 9.18888C4.37977 9.31272 4.55314 9.36225 4.72652 9.31272L6.48504 8.84213L11.1909 13.449C11.29 13.548 11.4139 13.5976 11.5377 13.5976C11.6615 13.5976 11.7854 13.548 11.8844 13.449L13.3457 11.9876C13.4448 11.8886 13.4944 11.7647 13.4944 11.6409C13.4944 11.5171 13.4448 11.3932 13.3457 11.2941L8.59031 6.71209Z" fill="#999999"/>
<path fill=currentcolor d="M6.1136 9.18893L3.98356 11.2942C3.78542 11.4923 3.78542 11.7896 3.98356 11.9877L5.4201 13.449C5.51917 13.5481 5.64301 13.5976 5.76685 13.5976C5.89069 13.5976 6.01453 13.5481 6.1136 13.449L8.21887 11.2942L6.1136 9.18893Z" fill="#999999"/>
</g>
</g>
</svg>
