<svg width="12" height="10" viewBox="0 0 12 10" fill="none" xmlns="http://www.w3.org/2000/svg">
<g id="Union">
<path d="M0 0.833333C0 0.373096 0.38375 0 0.857143 0H11.1429C11.6163 0 12 0.373096 12 0.833333C12 1.29357 11.6163 1.66667 11.1429 1.66667H0.857143C0.38375 1.66667 0 1.29357 0 0.833333Z" fill="#A6A6A6"/>
<path d="M0 5C0 4.53976 0.38375 4.16667 0.857143 4.16667H11.1429C11.6163 4.16667 12 4.53976 12 5C12 5.46024 11.6163 5.83333 11.1429 5.83333H0.857143C0.38375 5.83333 0 5.46024 0 5Z" fill="#A6A6A6"/>
<path d="M0.857143 8.33333C0.38375 8.33333 0 8.70643 0 9.16667C0 9.6269 0.38375 10 0.857143 10H11.1429C11.6163 10 12 9.6269 12 9.16667C12 8.70643 11.6163 8.33333 11.1429 8.33333H0.857143Z" fill="#A6A6A6"/>
</g>
</svg>
