<svg width="20" height="20" viewBox="0 0 20 20" fill="none" xmlns="http://www.w3.org/2000/svg">
<g id="Frame 14">
<path id="Vector" d="M15 13C15.6566 13 16.3068 13.1293 16.9134 13.3806C17.52 13.6319 18.0712 14.0002 18.5355 14.4645C18.9998 14.9288 19.3681 15.48 19.6194 16.0866C19.8707 16.6932 20 17.3434 20 18V20H8.50672e-08V18C-0.000241325 16.6904 0.513345 15.4329 1.43036 14.498C2.34738 13.563 3.59463 13.0251 4.904 13C6.28822 14.2878 8.10939 15.0025 10 15C11.8901 15.0027 13.711 14.2892 15.096 13.003L15 13ZM10 0C11.7239 0 13.3772 0.684819 14.5962 1.90381C15.8152 3.12279 16.5 4.77609 16.5 6.5C16.5 8.22391 15.8152 9.87721 14.5962 11.0962C13.3772 12.3152 11.7239 13 10 13C8.27609 13 6.62279 12.3152 5.40381 11.0962C4.18482 9.87721 3.5 8.22391 3.5 6.5C3.5 4.77609 4.18482 3.12279 5.40381 1.90381C6.62279 0.684819 8.27609 0 10 0V0Z" fill="#839AB5"/>
</g>
</svg>
