<svg width="16" height="16" viewBox="0 0 16 16" fill="none" xmlns="http://www.w3.org/2000/svg">
<g id="Frame">
<path fill=currentcolor id="Vector" d="M13.7883 11.5231C14.2792 10.8801 14.5302 10.0825 14.4971 9.27066C14.4952 8.07411 14.0537 7.0376 13.2026 6.53183C12.9622 4.48806 11.9795 2.99705 10.774 3L5.19665 3.01381C3.9908 3.01676 3.01593 4.5104 2.78431 6.55746C1.93645 7.06586 1.5005 8.10204 1.50213 9.30287C1.47382 10.1144 1.72878 10.91 2.22232 11.5504L2.22719 12.415V12.418C2.22719 12.7394 2.71837 13 3.32421 13C3.93006 13 4.42025 12.7394 4.42025 12.418L4.41831 12.4101L4.41538 12.3697L11.5962 12.3523L11.5991 12.3927H11.6011C11.6011 12.4012 11.5962 12.4091 11.5962 12.4177C11.5962 12.7391 12.0874 12.9997 12.6932 12.9997C13.2991 12.9997 13.7893 12.7391 13.7893 12.4177C13.7893 12.4071 13.7844 12.3973 13.7834 12.3868H13.7902L13.7883 11.5231ZM5.19665 5.5H10.7769C11.5533 5.49803 12.4921 5.5 12.4921 6.25906C12.369 6.23497 12.2444 6.21949 12.1192 6.21273V6.20418L10.6596 6.20714L9.44341 6.2101L4.0509 6.22357C3.86405 6.22351 3.66827 6.22054 3.48534 6.25906C3.48534 5.5 4.4209 5.50099 5.19665 5.5ZM3.48534 10.2871C3.3113 10.2899 3.14037 10.2403 2.9943 10.1445C2.84824 10.0487 2.73365 9.91115 2.66512 9.74928C2.59658 9.58742 2.57721 9.40858 2.60946 9.23554C2.64171 9.0625 2.72412 8.90307 2.84621 8.77756C2.9683 8.65205 3.12454 8.56613 3.29505 8.53073C3.46556 8.49533 3.64263 8.51206 3.80371 8.57878C3.96479 8.64551 4.10261 8.75921 4.19962 8.90542C4.29663 9.05162 4.34844 9.22373 4.34846 9.39982C4.34976 9.63311 4.25969 9.85742 4.09794 10.0237C3.93619 10.19 3.71593 10.2847 3.48534 10.2871ZM9.98526 10.1077L6.02209 10.1136C5.2379 10.1156 5.22069 8.75109 6.01819 8.74912L9.98136 8.73762C10.7149 8.73532 10.7194 10.1057 9.98526 10.1077ZM11.6517 9.3847C11.6531 9.2117 11.7051 9.04299 11.8011 8.8998C11.8971 8.75662 12.0328 8.64536 12.1912 8.58004C12.3495 8.51472 12.5234 8.49825 12.691 8.5327C12.8586 8.56716 13.0124 8.65101 13.133 8.77368C13.2536 8.89636 13.3356 9.05238 13.3687 9.22211C13.4018 9.39184 13.3846 9.56769 13.3191 9.72752C13.2537 9.88736 13.1429 10.024 13.0009 10.1203C12.8588 10.2166 12.6917 10.2683 12.5207 10.2687C12.2896 10.268 12.0682 10.1745 11.9052 10.0088C11.7422 9.84298 11.6512 9.61852 11.6517 9.3847Z" fill="#999999"/>
</g>
</svg>
