<svg width="30" height="30" viewBox="0 0 30 30" fill="none" xmlns="http://www.w3.org/2000/svg">
<g id="Frame">
<path fill=currentcolor id="Vector" d="M23.9552 8.68017H17.0383C16.5198 8.68017 16.1067 9.10204 16.1067 9.61179C16.1067 10.104 16.4846 10.4995 16.9592 10.5434H23.9552C24.4738 10.5434 24.8868 10.1216 24.8868 9.61179C24.8868 9.10204 24.465 8.68017 23.9552 8.68017ZM21.2043 11.976H17.0295C16.511 11.976 16.0979 12.3979 16.0979 12.9076C16.0979 13.3998 16.4758 13.7953 16.9504 13.8393H21.2043C21.7228 13.8393 22.1359 13.4174 22.1359 12.9076C22.1359 12.3979 21.7228 11.976 21.2043 11.976ZM9.67322 8.46044C8.24941 8.46044 6.93986 9.603 6.93986 10.9917C6.93986 12.3803 8.24941 13.9272 9.67322 13.9272C11.1498 13.9272 12.4769 12.5297 12.4769 11.1323C12.4769 9.75242 11.097 8.46044 9.67322 8.46044ZM9.70837 14.4105C6.29827 14.4105 4.70747 16.3617 4.65474 19.0247V19.7366H14.7444V18.9281C14.7444 16.3353 13.1712 14.4105 9.70837 14.4105ZM25.256 19.2093C25.6075 18.8665 26.17 18.8665 26.5128 19.2181C26.838 19.5521 26.8644 20.0706 26.5743 20.4222L26.5128 20.4837L22.5754 24.4827C22.3996 24.6584 22.1271 24.6584 21.9338 24.509L21.881 24.4651L20.1057 22.6721C19.7805 22.3382 19.7629 21.8196 20.0529 21.4681L20.1145 21.4065L20.1848 21.345C20.51 21.0813 20.9846 21.0813 21.3098 21.3538L21.3713 21.4153L22.2414 22.2942L25.256 19.2093V19.2093ZM26.5304 4.28571C27.4444 4.28571 28.1739 5.02398 28.1739 5.92923V17.4164C26.9171 16.1859 25.1945 15.4213 23.2961 15.4213C19.4465 15.4213 16.3176 18.5413 16.3176 22.3997C16.3176 23.595 16.6165 24.72 17.1438 25.7043H3.45066C2.55419 25.7131 1.81592 24.9748 1.81592 24.0608V5.93802C1.81592 5.02398 2.55419 4.29449 3.45945 4.29449H26.5304V4.28571Z" fill="#999999"/>
</g>
</svg>
